<svg width="466" height="134" fill="none" xmlns="http://www.w3.org/2000/svg"><g filter="url(#a)"><path d="M433.03 10H41.282c-14.448 0-28.765 6.454-33.961 19.936-10.223 26.525-9.368 60.495.252 84.859 5.058 12.808 18.753 18.705 32.523 18.705h388.328c12.465 0 25.114-4.77 29.951-16.258 12.02-28.544 8.144-73.027-1.935-95.307C452.454 13.123 442.702 10 433.03 10Z" fill="#991500"/></g><g filter="url(#b)"><path d="M433.03 0H41.282C26.834 0 12.517 6.454 7.321 19.936c-10.223 26.525-9.368 60.495.252 84.859 5.058 12.808 18.753 18.705 32.523 18.705h388.328c12.465 0 25.114-4.77 29.951-16.258 12.02-28.544 8.144-73.027-1.935-95.307C452.454 3.123 442.702 0 433.03 0Z" fill="url(#c)"/></g><defs><filter id="a" x="0" y="10" width="465.835" height="127.5" filterUnits="userSpaceOnUse" color-interpolation-filters="sRGB"><feFlood flood-opacity="0" result="BackgroundImageFix"/><feBlend in="SourceGraphic" in2="BackgroundImageFix" result="shape"/><feColorMatrix in="SourceAlpha" values="0 0 0 0 0 0 0 0 0 0 0 0 0 0 0 0 0 0 127 0" result="hardAlpha"/><feOffset dy="4"/><feGaussianBlur stdDeviation="14"/><feComposite in2="hardAlpha" operator="arithmetic" k2="-1" k3="1"/><feColorMatrix values="0 0 0 0 1 0 0 0 0 1 0 0 0 0 1 0 0 0 0.25 0"/><feBlend in2="shape" result="effect1_innerShadow_108_4"/></filter><filter id="b" x="0" y="0" width="465.835" height="127.5" filterUnits="userSpaceOnUse" color-interpolation-filters="sRGB"><feFlood flood-opacity="0" result="BackgroundImageFix"/><feBlend in="SourceGraphic" in2="BackgroundImageFix" result="shape"/><feColorMatrix in="SourceAlpha" values="0 0 0 0 0 0 0 0 0 0 0 0 0 0 0 0 0 0 127 0" result="hardAlpha"/><feOffset dy="4"/><feGaussianBlur stdDeviation="14"/><feComposite in2="hardAlpha" operator="arithmetic" k2="-1" k3="1"/><feColorMatrix values="0 0 0 0 1 0 0 0 0 1 0 0 0 0 1 0 0 0 0.3 0"/><feBlend in2="shape" result="effect1_innerShadow_108_4"/></filter><linearGradient id="c" x1="70.892" y1="76" x2="415.392" y2="74" gradientUnits="userSpaceOnUse"><stop stop-color="#FF2400"/><stop offset=".51" stop-color="#FF5C42"/><stop offset="1" stop-color="#FF2300"/></linearGradient></defs></svg>