<svg width="294" height="85" fill="none" xmlns="http://www.w3.org/2000/svg"><g filter="url(#a)"><path d="M273.296 6.312H26.054c-9.119 0-18.154 4.073-21.434 12.582-6.451 16.74-5.912 38.18.16 53.556 3.192 8.084 11.835 11.805 20.526 11.805h245.083c7.867 0 15.85-3.01 18.903-10.26 7.586-18.015 5.14-46.09-1.221-60.15-2.516-5.562-8.671-7.533-14.775-7.533Z" fill="#991500"/></g><g filter="url(#b)"><path d="M273.296 0H26.054C16.935 0 7.9 4.073 4.62 12.582c-6.451 16.74-5.912 38.18.16 53.556 3.192 8.084 11.835 11.806 20.526 11.806h245.083c7.867 0 15.85-3.01 18.903-10.261 7.586-18.015 5.14-46.089-1.221-60.15C285.555 1.97 279.4 0 273.296 0Z" fill="url(#c)"/></g><defs><filter id="a" x="0" y="6.312" width="294" height="80.468" filterUnits="userSpaceOnUse" color-interpolation-filters="sRGB"><feFlood flood-opacity="0" result="BackgroundImageFix"/><feBlend in="SourceGraphic" in2="BackgroundImageFix" result="shape"/><feColorMatrix in="SourceAlpha" values="0 0 0 0 0 0 0 0 0 0 0 0 0 0 0 0 0 0 127 0" result="hardAlpha"/><feOffset dy="2.525"/><feGaussianBlur stdDeviation="8.836"/><feComposite in2="hardAlpha" operator="arithmetic" k2="-1" k3="1"/><feColorMatrix values="0 0 0 0 1 0 0 0 0 1 0 0 0 0 1 0 0 0 0.25 0"/><feBlend in2="shape" result="effect1_innerShadow_120_10"/></filter><filter id="b" x="0" y="0" width="294" height="80.468" filterUnits="userSpaceOnUse" color-interpolation-filters="sRGB"><feFlood flood-opacity="0" result="BackgroundImageFix"/><feBlend in="SourceGraphic" in2="BackgroundImageFix" result="shape"/><feColorMatrix in="SourceAlpha" values="0 0 0 0 0 0 0 0 0 0 0 0 0 0 0 0 0 0 127 0" result="hardAlpha"/><feOffset dy="2.525"/><feGaussianBlur stdDeviation="8.836"/><feComposite in2="hardAlpha" operator="arithmetic" k2="-1" k3="1"/><feColorMatrix values="0 0 0 0 1 0 0 0 0 1 0 0 0 0 1 0 0 0 0.3 0"/><feBlend in2="shape" result="effect1_innerShadow_120_10"/></filter><linearGradient id="c" x1="44.742" y1="47.965" x2="262.164" y2="46.703" gradientUnits="userSpaceOnUse"><stop stop-color="#FF2400"/><stop offset=".51" stop-color="#FF5C42"/><stop offset="1" stop-color="#FF2300"/></linearGradient></defs></svg>