<svg width="348" height="62" fill="none" xmlns="http://www.w3.org/2000/svg"><path d="M18.175 12.521c2.093-2.452 4.545-4.695 7.356-6.728 2.811-2.093 4.994-3.11 6.55-3.05 1.495.06 2.601 1.046 3.319 2.96.718 1.854.777 3.798.18 5.831 2.332-2.272 4.754-4.246 7.266-5.92 2.572-1.675 4.575-2.483 6.01-2.423 1.556.06 2.543 1.166 2.961 3.32.419 2.153.15 4.336-.807 6.549-.598 1.495-1.974 3.977-4.127 7.446-2.153 3.409-3.529 5.741-4.127 6.997-1.196 2.572-1.585 4.755-1.166 6.55.419 1.794 1.465 2.661 3.14 2.601 2.93-.06 6.669-4.156 11.214-12.29.538-.898 1.077-.957 1.615-.18.24.24.27 1.017.09 2.333-.12 1.256-.419 2.362-.897 3.32-1.316 2.63-3.26 4.903-5.832 6.817-2.572 1.854-5.114 2.781-7.626 2.781-3.827 0-6.459-1.345-7.894-4.037-1.376-2.691-1.196-5.861.538-9.51.897-2.033 2.303-4.575 4.217-7.625a863.94 863.94 0 0 0 4.575-7.357c1.136-1.854 1.525-2.84 1.166-2.96-.299-.12-.807-.03-1.525.27-.658.238-1.734.896-3.23 1.973-1.435 1.076-3.05 2.512-4.844 4.306-5.622 5.622-10.826 13.786-15.61 24.492-.598 1.196-1.286 1.346-2.064.448-2.332-2.033-2.392-5.801-.18-11.304.778-2.033 2.244-4.754 4.397-8.163 2.153-3.47 3.887-6.34 5.203-8.613 1.376-2.273 1.794-3.499 1.256-3.678-.359-.18-1.046 0-2.063.538-1.017.479-2.363 1.406-4.037 2.781-1.615 1.316-3.32 2.96-5.114 4.934-4.486 4.845-8.882 12.351-13.188 22.519-.419.957-.987 1.106-1.704.448-2.034-1.794-2.333-4.874-.898-9.24.957-2.871 2.841-6.998 5.652-12.38 2.871-5.444 5.682-10.228 8.434-14.355.657-1.017 1.285-1.017 1.884 0 1.435 2.392 1.405 5.592-.09 9.6Zm55.302 25.12c7.476-.478 13.158-4.844 17.045-13.098.3-.598.628-.867.987-.808.36.06.598.33.718.808.419 1.794.03 3.768-1.166 5.921-3.23 5.861-8.553 9.061-15.97 9.6-5.621.358-9.838-.748-12.649-3.32-1.734-1.555-2.751-3.559-3.05-6.01a317.485 317.485 0 0 0-13.098 26.824c-.419.956-.927 1.016-1.525.179-1.496-2.034-1.526-5.323-.09-9.869 1.316-4.246 4.814-11.782 10.496-22.607C60.917 14.375 65.223 7.019 68.094 3.19c.897-1.196 1.615-1.166 2.153.09.419 1.136.598 2.482.538 4.037 5.443-4.725 9.81-5.353 13.099-1.884 3.588 3.828 3.26 10.467-.987 19.916-2.752 6.041-5.891 10.138-9.42 12.291Zm-9.061-15.88c-1.196 2.931-1.824 5.563-1.884 7.896-.06 2.332.508 4.067 1.704 5.203 1.376 1.136 3.32.419 5.832-2.153 2.512-2.632 4.874-6.19 7.087-10.676 1.735-3.589 2.811-6.968 3.23-10.138.478-3.17.15-5.024-.987-5.562-1.077-.538-2.841.21-5.293 2.243-2.392 2.034-4.606 4.725-6.639 8.074a214.642 214.642 0 0 0-3.05 5.114Zm54.247-12.918c1.316-2.452 2.392-4.276 3.23-5.472.837-1.197 1.555-1.376 2.153-.539.777.897 1.196 2.213 1.256 3.948.06 1.674-.389 3.678-1.346 6.01-.538 1.137-1.914 3.589-4.127 7.357-2.213 3.708-3.708 6.43-4.485 8.164-.778 1.675-1.286 3.17-1.526 4.486-.239 1.315-.179 2.362.18 3.14.359.777 1.047 1.136 2.063 1.076 1.735-.06 3.708-1.316 5.921-3.768s4.157-5.353 5.832-8.702c.538-.957 1.017-.987 1.435-.09.598 1.316.329 3.17-.807 5.563-1.256 2.631-3.14 4.934-5.652 6.907-2.452 1.914-4.875 2.811-7.267 2.692-2.392-.12-4.216-.837-5.472-2.153-1.256-1.316-1.884-3.05-1.884-5.204-3.649 4.665-7.387 6.998-11.215 6.998-2.75 0-4.784-1.077-6.1-3.23-1.256-2.213-1.585-5.054-.987-8.523.598-3.468 2.093-6.967 4.486-10.496 3.409-4.964 6.758-8.642 10.048-11.035 3.349-2.392 6.28-3.588 8.792-3.588 1.854 0 3.259.628 4.216 1.884.957 1.196 1.376 2.721 1.256 4.575Zm-7.805 13.906c1.794-3.17 3.14-5.951 4.037-8.344.897-2.392 1.316-4.186 1.256-5.382-.06-1.197-.538-1.855-1.435-1.974-1.496-.12-3.679 1.136-6.549 3.768-2.811 2.631-5.413 5.891-7.806 9.779-1.555 2.512-2.72 4.994-3.498 7.446-.778 2.392-1.077 4.366-.897 5.92.179 1.556.837 2.333 1.973 2.333 1.735.06 3.708-1.106 5.921-3.498 2.213-2.453 4.546-5.802 6.998-10.048Zm27.114 14.354c-2.213 1.495-4.366 2.243-6.46 2.243-2.033 0-3.678-.658-4.934-1.974-1.256-1.316-2.003-2.99-2.243-5.024-.299-2.034-.06-4.426.718-7.177.778-2.751 2.063-5.443 3.858-8.074 3.289-4.845 6.609-8.463 9.958-10.856 3.409-2.392 6.37-3.588 8.882-3.588 1.854 0 3.259.628 4.216 1.884.957 1.256 1.376 2.781 1.256 4.575l.269-.448a28.745 28.745 0 0 1 2.333-3.768l1.256-1.705c.897-1.196 1.615-1.166 2.153.09.478 1.256.718 2.572.718 3.947 5.382-4.485 9.689-5.084 12.918-1.794 3.589 3.828 3.26 10.467-.987 19.916-2.751 6.041-5.891 10.138-9.419 12.291 7.476-.478 13.158-4.844 17.045-13.098.299-.598.628-.867.987-.808.359.06.598.33.718.808.418 1.794.03 3.768-1.167 5.921-3.229 5.861-8.552 9.061-15.969 9.6-5.622.358-9.838-.748-12.649-3.32-1.675-1.495-2.692-3.35-3.05-5.562-5.742 10.407-10.497 20.125-14.265 29.157-.419.957-.957 1.076-1.615.358-.777-.897-1.256-1.824-1.435-2.78-.18-.898.03-2.722.628-5.473 1.196-4.127 3.289-9.24 6.28-15.341ZM168.385 6.33c-1.077-.478-2.722.18-4.935 1.974-2.213 1.734-4.336 4.156-6.369 7.267l-3.499 6.37c-1.316 2.392-2.004 4.933-2.063 7.625-.06 2.632.508 4.396 1.704 5.293 1.376 1.136 3.319.419 5.831-2.153 2.512-2.632 4.875-6.19 7.088-10.676 1.734-3.589 2.811-6.968 3.23-10.138.478-3.17.149-5.024-.987-5.562Zm-22.249 16.597c4.366-7.596 6.04-12.53 5.024-14.803-.24-.538-.628-.837-1.167-.897-1.495-.12-3.678 1.137-6.549 3.768-2.811 2.632-5.412 5.862-7.805 9.69-1.555 2.511-2.751 5.023-3.588 7.535-.778 2.452-1.077 4.456-.897 6.011.239 1.555.927 2.333 2.063 2.333 3.409 0 7.715-4.546 12.919-13.637Z" fill="#fff"/><path d="M209.291 18.712c-.599.657-1.406 1.046-2.423 1.166-1.016 4.067-2.841 7.984-5.472 11.752-2.632 3.709-5.533 6.1-8.702 7.177-4.367 1.436-8.135.12-11.304-3.947-1.854-2.811-2.632-5.921-2.333-9.33.359-3.47 1.615-7.088 3.768-10.856 1.794-3.23 3.977-5.92 6.549-8.074 2.572-2.213 5.144-3.409 7.715-3.588 2.453-.18 4.486.837 6.101 3.05.299.419.807 1.017 1.525 1.794.718.718 1.256 1.316 1.615 1.795.359.478.658 1.285.897 2.422.239 1.076.299 2.362.18 3.857-.06.24-.09.599-.09 1.077 0 .419-.03.748-.09.987.18 0 .449-.03.808-.09.418-.06.747-.09.986-.09.658 0 .748.3.27.898Zm-7.716-2.423c.718-2.87.957-5.083.718-6.638-.12-.898-.389-1.466-.808-1.705-.358-.3-.747-.24-1.166.18-.359.358-.598.956-.718 1.794-.478 2.571.18 4.695 1.974 6.37Zm-.628 2.423c-.538-.24-1.106-.599-1.704-1.077-1.077-.777-2.034-1.884-2.871-3.32-.778-1.495-1.196-3.02-1.256-4.575a30.317 30.317 0 0 0-6.908 8.433c-1.854 3.41-3.08 6.878-3.678 10.407-.599 3.469-.299 5.682.897 6.639 1.316 1.076 3.17.777 5.562-.897 2.452-1.675 4.725-4.486 6.818-8.433 1.316-2.453 2.363-4.845 3.14-7.177Zm11.818-6.19c2.093-2.214 5.024-4.427 8.792-6.64 3.828-2.272 6.459-3.289 7.895-3.05 1.614.24 2.84 1.316 3.678 3.23.837 1.854.777 3.947-.18 6.28-.538 1.136-1.884 3.559-4.037 7.267-2.093 3.648-3.528 6.31-4.306 7.984-.778 1.735-1.256 3.32-1.435 4.755-.12 1.435.059 2.572.538 3.41.478.777 1.256 1.136 2.332 1.076 3.29-.18 7.118-4.306 11.484-12.38.478-.898.987-.928 1.525-.09.718 1.136.448 3.02-.808 5.651-1.256 2.572-3.169 4.815-5.741 6.729-2.512 1.914-5.024 2.87-7.536 2.87-3.708 0-6.131-1.255-7.267-3.767-1.136-2.512-.987-5.712.449-9.6.837-2.452 2.123-5.173 3.857-8.163 1.795-3.05 3.2-5.413 4.217-7.088 1.017-1.734 1.316-2.691.897-2.87-.359-.12-1.286.09-2.781.627-1.436.479-3.29 1.436-5.562 2.871a27.63 27.63 0 0 0-5.921 4.934c-1.017.957-1.496.838-1.436-.358.18-1.615.628-2.841 1.346-3.679Zm54.349 6.19c-.598.657-1.406 1.046-2.423 1.166-1.016 4.067-2.84 7.984-5.472 11.752-2.632 3.709-5.532 6.1-8.702 7.177-4.366 1.436-8.134.12-11.304-3.947-1.854-2.811-2.632-5.921-2.333-9.33.359-3.47 1.615-7.088 3.768-10.856 1.794-3.23 3.978-5.92 6.549-8.074 2.572-2.213 5.144-3.409 7.716-3.588 2.452-.18 4.485.837 6.1 3.05.299.419.808 1.017 1.525 1.794.718.718 1.256 1.316 1.615 1.795.359.478.658 1.285.897 2.422.24 1.076.299 2.362.18 3.857-.06.24-.09.599-.09 1.077 0 .419-.03.748-.09.987.18 0 .449-.03.808-.09a7.4 7.4 0 0 1 .987-.09c.657 0 .747.3.269.898Zm-7.716-2.423c.718-2.87.957-5.083.718-6.638-.12-.898-.389-1.466-.807-1.705-.359-.3-.748-.24-1.167.18-.358.358-.598.956-.717 1.794-.479 2.571.179 4.695 1.973 6.37Zm-.628 2.423c-.538-.24-1.106-.599-1.704-1.077-1.077-.777-2.034-1.884-2.871-3.32-.778-1.495-1.196-3.02-1.256-4.575a30.317 30.317 0 0 0-6.908 8.433c-1.854 3.41-3.08 6.878-3.678 10.407-.598 3.469-.299 5.682.897 6.639 1.316 1.076 3.17.777 5.562-.897 2.452-1.675 4.725-4.486 6.818-8.433 1.316-2.453 2.363-4.845 3.14-7.177Zm22.673-6.55c-5.622 9.929-10.167 18.69-13.636 26.287-.419.957-.987 1.076-1.705.358-1.973-1.973-2.272-5.053-.897-9.24.897-2.751 2.781-6.759 5.652-12.022 2.871-5.323 5.772-10.137 8.702-14.444.658-1.016 1.286-1.016 1.884 0 .718 1.197 1.107 2.632 1.167 4.307.059 1.615-.329 3.2-1.167 4.754Zm9.331 3.768-.718 4.038c-1.376.657-3.918 1.405-7.626 2.242-3.648.778-6.938 1.406-9.868 1.884l-4.486.718c-1.077.24-1.585-.15-1.525-1.166.06-1.137.718-2.004 1.974-2.602.239-.12.478-.21.717-.269 11.603-1.675 18.78-3.29 21.532-4.844Zm-.987 23.416c-3.29 0-5.473-1.256-6.549-3.768-1.017-2.572-.838-5.682.538-9.33 1.076-3.05 2.811-6.789 5.203-11.215 2.393-4.485 4.486-8.014 6.28-10.586.778-1.076 1.495-1.256 2.153-.538.778.837 1.197 2.093 1.256 3.768.06 1.674-.388 3.678-1.345 6.01-.479.958-1.675 3.2-3.589 6.73-1.914 3.528-3.23 6.13-3.947 7.804-1.077 2.632-1.555 4.725-1.436 6.28.12 1.555.897 2.303 2.333 2.243 1.914-.06 3.977-1.316 6.19-3.768 2.213-2.452 4.037-5.293 5.473-8.523.478-.897.957-.897 1.435 0 .718 1.376.508 3.23-.628 5.563a16.91 16.91 0 0 1-5.742 6.728c-2.512 1.734-5.053 2.602-7.625 2.602Zm42.595 0c-3.29 0-5.473-1.256-6.549-3.768-1.017-2.572-.838-5.682.538-9.33 1.076-3.05 2.811-6.789 5.203-11.215 2.393-4.485 4.486-8.014 6.28-10.586.778-1.076 1.495-1.256 2.153-.538.778.837 1.197 2.093 1.256 3.768.06 1.674-.388 3.678-1.345 6.01-.479.958-1.675 3.2-3.589 6.73-1.914 3.528-3.23 6.13-3.947 7.804-1.077 2.632-1.555 4.725-1.436 6.28.12 1.555.897 2.303 2.333 2.243 1.914-.06 3.977-1.316 6.19-3.768 2.213-2.452 4.037-5.293 5.473-8.523.478-.897.957-.897 1.435 0 .718 1.376.508 3.23-.628 5.563a16.91 16.91 0 0 1-5.742 6.728c-2.512 1.734-5.053 2.602-7.625 2.602Zm-10.586-14.803c-.18 4.127-1.645 7.685-4.396 10.676-2.752 2.93-6.31 4.396-10.676 4.396-3.709 0-6.131-1.256-7.267-3.768-1.137-2.512-.987-5.712.448-9.6.898-2.75 2.752-6.519 5.563-11.303 2.87-4.785 4.844-8.284 5.921-10.497.119-.299.329-.568.628-.807.359-.24.688-.3.987-.18.418.18.837.718 1.256 1.615.478.897.777 1.794.897 2.692.299 2.033-.658 5.053-2.871 9.06.359-.119.957-.239 1.794-.358 1.794-.12 3.32.478 4.576 1.794.239.24.598.628 1.076 1.166.538.479.927.868 1.166 1.167.24.299.449.807.628 1.525.24.658.329 1.465.27 2.422Zm-5.294.18c.479.478 1.346.837 2.602 1.076 1.316.18 2.602.15 3.858-.09.239-.06.389 0 .448.18.06.18 0 .329-.179.448-.479.718-1.705 1.017-3.678.897-1.974-.18-3.559-.687-4.755-1.525-1.974-1.435-2.991-3.11-3.05-5.024-.898.18-1.645.449-2.243.808-3.05 5.383-4.576 9.21-4.576 11.483 0 2.572.957 3.858 2.871 3.858 1.675 0 3.439-1.107 5.293-3.32 1.914-2.213 3.11-5.054 3.589-8.523.359-2.631.508-4.096.448-4.395-.119-.539-.329-.898-.628-1.077-.299-.18-.598-.15-.897.09-.239.239-.418.598-.538 1.076-.359 1.615.12 2.96 1.435 4.037Z" fill="#FF3B1C"/></svg>